<svg width="88" height="24" viewBox="0 0 88 24" fill="none" xmlns="http://www.w3.org/2000/svg">
<path d="M22 12C22 6.48 17.52 2 12 2C6.48 2 2 6.48 2 12C2 16.84 5.44 20.87 10 21.8V15H8V12H10V9.5C10 7.57 11.57 6 13.5 6H16V9H14C13.45 9 13 9.45 13 10V12H16V15H13V21.95C18.05 21.45 22 17.19 22 12Z" fill="white"/>
<path d="M54.5 6.00011L52.25 6.37511L53.75 4.50011L51.125 5.25011C47.75 1.50011 42.5 5.62511 44 9.00011C38 9.00011 35 4.50011 35 4.50011C35 4.50011 32.75 7.87511 36.5 10.5001L34.25 9.75011C34.25 12.0001 35.75 13.5001 38.375 14.2501H35.75C37.25 17.2501 39.875 17.2501 39.875 17.2501C39.875 17.2501 37.625 19.1251 33.5 19.1251C45.875 25.1251 53.375 13.8751 52.25 7.87511L54.5 6.00011Z" fill="white"/>
<path d="M81 8.5C81.8284 8.5 82.5 7.82843 82.5 7C82.5 6.17157 81.8284 5.5 81 5.5C80.1716 5.5 79.5 6.17157 79.5 7C79.5 7.82843 80.1716 8.5 81 8.5Z" fill="white"/>
<path d="M80 3C82.76 3 85 5.24 85 8V16C85 18.76 82.76 21 80 21H72C69.24 21 67 18.76 67 16V8C67 5.24 69.24 3 72 3H76H80Z" stroke="white" stroke-width="2" stroke-linecap="round" stroke-linejoin="round"/>
<path d="M76 8C78.21 8 80 9.79 80 12C80 14.21 78.21 16 76 16C73.79 16 72 14.21 72 12C72 9.79 73.79 8 76 8Z" stroke="white" stroke-width="2" stroke-linecap="round" stroke-linejoin="round"/>
</svg>
